<svg id="Logo" xmlns="http://www.w3.org/2000/svg" viewBox="0 0 298.59 170.08"><defs><style>.cls-1{fill:#fff;}.cls-2{fill:#ee253d;}</style></defs><title>Rosa Spier Huis - Logo</title><path class="cls-1" d="M493,49.17l-7.26-10.75h-2.94V49.17H477V20.79h10.35q5.49,0,8,2t2.54,6.46A9.78,9.78,0,0,1,496.38,35,6.86,6.86,0,0,1,492,37.75l7.62,11.42H493Zm-1-19.71q0-2.17-1.1-2.91a6.75,6.75,0,0,0-3.63-.74h-4.51v7.57H487a9.49,9.49,0,0,0,3-.37,2.73,2.73,0,0,0,1.51-1.15A4.83,4.83,0,0,0,492,29.46Z" transform="translate(-277.54)"/><path class="cls-1" d="M522.92,38.47q0,5.37-2.49,8.36t-7.84,3q-10.37,0-10.37-11.34,0-5.46,2.49-8.44t7.88-3q5.35,0,7.84,3T522.92,38.47Zm-5.5,0a9.39,9.39,0,0,0-1.11-5.18,4.18,4.18,0,0,0-3.73-1.63,4.22,4.22,0,0,0-3.75,1.67,9.14,9.14,0,0,0-1.15,5.14,9,9,0,0,0,1.14,5.08,4.26,4.26,0,0,0,3.76,1.63,4.21,4.21,0,0,0,3.71-1.61A9,9,0,0,0,517.43,38.47Z" transform="translate(-277.54)"/><path class="cls-1" d="M544.29,43a6.13,6.13,0,0,1-1.08,3.65A6.73,6.73,0,0,1,540.14,49a12.07,12.07,0,0,1-4.54.8q-6.77,0-9.22-3.75l4-2.77A4.73,4.73,0,0,0,532.57,45a8.17,8.17,0,0,0,2.71.44q3.79,0,3.79-2.19A1.62,1.62,0,0,0,538,41.8a17.72,17.72,0,0,0-3.36-1.08q-4.3-.94-6.05-2.67a6,6,0,0,1-1.75-4.47,5.87,5.87,0,0,1,2.19-4.7Q531.22,27,535.48,27a13.21,13.21,0,0,1,5.12.92A7.26,7.26,0,0,1,544,30.73l-4,2.81a5.12,5.12,0,0,0-4.63-2.17,4.5,4.5,0,0,0-2.49.56,1.68,1.68,0,0,0-.84,1.45,1.54,1.54,0,0,0,.76,1.34,11,11,0,0,0,3,1.06,22.32,22.32,0,0,1,5.26,1.79,6.45,6.45,0,0,1,2.39,2.21A6.1,6.1,0,0,1,544.29,43Z" transform="translate(-277.54)"/><path class="cls-1" d="M561.66,49.17V46.94a9.88,9.88,0,0,1-6.75,2.87,7.24,7.24,0,0,1-5.41-1.88,6.6,6.6,0,0,1-1.83-4.81,7,7,0,0,1,.94-3.79A6.27,6.27,0,0,1,551.38,37a17.22,17.22,0,0,1,5.3-1.2l4.55-.43v-1a2.66,2.66,0,0,0-1.09-2.47,6.19,6.19,0,0,0-3.19-.67,7.06,7.06,0,0,0-3,.57,3.9,3.9,0,0,0-1.84,1.64L548,30.82a6.93,6.93,0,0,1,3.42-2.8A14.53,14.53,0,0,1,557,27q5,0,7.28,1.75t2.23,5.75V49.17h-4.88Zm-0.43-10-2.7.25a9.16,9.16,0,0,0-4.13,1.09A2.83,2.83,0,0,0,553.14,43a2.24,2.24,0,0,0,.82,2,3.9,3.9,0,0,0,2.18.54,6.14,6.14,0,0,0,2.36-.6,11.49,11.49,0,0,0,2.73-1.71v-4.1Z" transform="translate(-277.54)"/><path class="cls-1" d="M497.46,91a7.93,7.93,0,0,1-2.81,6.54q-2.81,2.28-8.28,2.28a16,16,0,0,1-6.58-1.25,10.26,10.26,0,0,1-4.54-4l4.47-3.4a10.11,10.11,0,0,0,1.87,2.09,6.63,6.63,0,0,0,2.1,1.09,9.16,9.16,0,0,0,2.8.39,7.1,7.1,0,0,0,3.7-.81,2.7,2.7,0,0,0,1.33-2.47,2.61,2.61,0,0,0-.46-1.58,3.74,3.74,0,0,0-1.39-1.1,18.55,18.55,0,0,0-3.21-1.06q-2.22-.59-4.19-1.2a12.75,12.75,0,0,1-3.4-1.57,7.1,7.1,0,0,1-2.25-2.42,7.38,7.38,0,0,1-.82-3.67,7.74,7.74,0,0,1,2.74-6.31q2.74-2.27,7.84-2.27,7.39,0,10.46,5l-4.42,3.45a7.37,7.37,0,0,0-2.63-2.58,7.29,7.29,0,0,0-3.48-.78,6.53,6.53,0,0,0-3.28.73,2.45,2.45,0,0,0-1.27,2.29,2.29,2.29,0,0,0,1.32,2.1A19.17,19.17,0,0,0,487.65,82q1.81,0.47,3.58,1a11.33,11.33,0,0,1,3.16,1.51A7.18,7.18,0,0,1,496.62,87,8.36,8.36,0,0,1,497.46,91Z" transform="translate(-277.54)"/><path class="cls-1" d="M522.33,88.33a16.48,16.48,0,0,1-1,6.11,8.77,8.77,0,0,1-3,4,7.83,7.83,0,0,1-4.67,1.39,8.91,8.91,0,0,1-6.11-2.24v9.7h-5.31V77.73h4.9v2.11a12.75,12.75,0,0,1,3.12-2,9.16,9.16,0,0,1,3.76-.73A7.3,7.3,0,0,1,520.19,80Q522.33,82.86,522.33,88.33Zm-5.47.08a9.25,9.25,0,0,0-1.09-4.89,3.58,3.58,0,0,0-3.25-1.75,6.57,6.57,0,0,0-2.67.6,8.91,8.91,0,0,0-2.36,1.49v9.41a8.46,8.46,0,0,0,2.09,1.34,6,6,0,0,0,2.56.58,4,4,0,0,0,3.45-1.86A8.61,8.61,0,0,0,516.85,88.41Z" transform="translate(-277.54)"/><path class="cls-1" d="M532.84,71.86A2.55,2.55,0,0,1,532.1,74a3.58,3.58,0,0,1-2.26.59,3,3,0,0,1-2.29-.7,2.94,2.94,0,0,1-.61-2,2.75,2.75,0,0,1,.66-2.06,3.22,3.22,0,0,1,2.24-.63,3.51,3.51,0,0,1,2.3.6A2.64,2.64,0,0,1,532.84,71.86Zm-5.62,27.38V77.73h5.31V99.24h-5.31Z" transform="translate(-277.54)"/><path class="cls-1" d="M542.91,89.87a6.11,6.11,0,0,0,1.4,4.12,5.41,5.41,0,0,0,4,1.25,8.79,8.79,0,0,0,2.75-.39,4.4,4.4,0,0,0,2.07-1.5l4,2.81A8,8,0,0,1,553.66,99a14.14,14.14,0,0,1-5.65.92q-5.33,0-8-2.79t-2.62-8.43q0-11.55,10.37-11.55,4.61,0,7,2.59t2.42,7.56v2.6H542.91ZM552,86.22q0-4.9-4.3-4.9a4.93,4.93,0,0,0-2.33.48,3.61,3.61,0,0,0-1.45,1.44,9,9,0,0,0-.85,3H552Z" transform="translate(-277.54)"/><path class="cls-1" d="M575.08,82.9a4.92,4.92,0,0,0-2.18-.41,5.89,5.89,0,0,0-2.81.71,12.38,12.38,0,0,0-2.73,2.06v14H562V77.73h5.31v3.08a13.84,13.84,0,0,1,2.92-2.44,6.54,6.54,0,0,1,3.5-1,4.71,4.71,0,0,1,2.35.43Z" transform="translate(-277.54)"/><path class="cls-1" d="M494,149.31V137.26H482.79v12.06H477V120.93h5.8v11H494v-11h5.83v28.38H494Z" transform="translate(-277.54)"/><path class="cls-1" d="M519.63,149.31v-2.77A11.09,11.09,0,0,1,516.2,149a9.14,9.14,0,0,1-3.9,1q-3.66,0-5.13-2a9.7,9.7,0,0,1-1.46-5.75V127.8H511v11.85a17.18,17.18,0,0,0,.27,3.49,2.77,2.77,0,0,0,.87,1.67,2.9,2.9,0,0,0,1.78.46q2.37,0,5.68-3.1V127.8h5.31v21.51h-5.31Z" transform="translate(-277.54)"/><path class="cls-1" d="M536.55,121.94a2.55,2.55,0,0,1-.74,2.09,3.58,3.58,0,0,1-2.26.59,3,3,0,0,1-2.29-.7,2.94,2.94,0,0,1-.61-2,2.75,2.75,0,0,1,.66-2.06,3.23,3.23,0,0,1,2.24-.62,3.51,3.51,0,0,1,2.3.61A2.63,2.63,0,0,1,536.55,121.94Zm-5.62,27.38V127.8h5.31v21.51h-5.31Z" transform="translate(-277.54)"/><path class="cls-1" d="M558.72,143.18a6.13,6.13,0,0,1-1.08,3.65,6.73,6.73,0,0,1-3.07,2.32,12.07,12.07,0,0,1-4.54.8q-6.77,0-9.22-3.75l4-2.77a4.73,4.73,0,0,0,2.23,1.75,8.15,8.15,0,0,0,2.71.44q3.79,0,3.79-2.19a1.63,1.63,0,0,0-1.07-1.49,17.8,17.8,0,0,0-3.36-1.08q-4.3-.94-6.05-2.67a6,6,0,0,1-1.75-4.47,5.87,5.87,0,0,1,2.19-4.7q2.19-1.85,6.45-1.85a13.21,13.21,0,0,1,5.12.92,7.26,7.26,0,0,1,3.41,2.77l-4,2.81a5.12,5.12,0,0,0-4.63-2.17,4.5,4.5,0,0,0-2.49.56,1.68,1.68,0,0,0-.84,1.45,1.54,1.54,0,0,0,.76,1.34,11,11,0,0,0,3,1.06,22.37,22.37,0,0,1,5.26,1.79,6.47,6.47,0,0,1,2.39,2.21A6.1,6.1,0,0,1,558.72,143.18Z" transform="translate(-277.54)"/><rect class="cls-2" width="170.08" height="170.08"/><path class="cls-1" d="M358.67,115.27s11.37-50.9,13.83-62a18.44,18.44,0,0,0,.71-3.86,5.63,5.63,0,0,0-6.1-5.56c-2.09.22-3.76,1.85-5.37,3.08C358,49.79,354,54.3,348.89,52.84c-3.55-1-6.74-5.57-9.23-8.17s-5-5.77-8-7.67c-4-2.47-8.63-2.06-13.11-2.08A1.61,1.61,0,0,1,317,33.68l-0.44-1.79H307c2.47,11.07,18.6,83.38,18.6,83.38s0.17,0.72.22,1.09c0.45,3.14-.77,5.08-2.44,7.47v4.8h37.51v-4.8c-1.67-2.39-2.9-4.33-2.44-7.47C358.5,116,358.67,115.27,358.67,115.27Zm-19.87-6.85a2.87,2.87,0,0,1-5.3-1L320.14,47.74a2.76,2.76,0,0,1,2.64-3.3c2.54,0,4.87,0,7.09,1.49,1.22,0.81,2.37,1.76,3.55,2.63C336.8,51.07,343.68,56,343.68,56a11,11,0,0,0,13.49,0l9.44-7.92a1.72,1.72,0,0,1,2.52,2.15Z" transform="translate(-277.54)"/><rect class="cls-1" x="45.85" y="133.44" width="37.51" height="4.8"/></svg>