<svg width="260" height="260" viewBox="0 0 260 260" fill="none" xmlns="http://www.w3.org/2000/svg">
<circle cx="130" cy="130" r="130" fill="url(#paint0_linear_169_3)"/>
<path d="M175 154.328C175 160.334 173.415 165.904 170.246 171.038C167.186 176.061 162.596 180.212 156.475 183.488C150.464 186.655 143.306 188.403 135 188.73V202H124.508V188.567C112.923 187.584 103.579 184.143 96.4754 178.246C89.3716 172.239 85.6011 164.102 85.1639 153.836H115C115.656 160.389 118.825 164.594 124.508 166.451V140.567C115.984 138.382 109.153 136.253 104.016 134.177C98.9891 132.102 94.5628 128.771 90.7377 124.184C86.9126 119.597 85 113.317 85 105.345C85 95.4061 88.6612 87.4334 95.9836 81.4266C103.415 75.4198 112.923 72.0341 124.508 71.2696V58H135V71.2696C146.475 72.1433 155.546 75.4744 162.213 81.2628C168.88 87.0512 172.596 95.0785 173.361 105.345H143.361C142.705 99.4471 139.918 95.6246 135 93.8771V119.27C144.071 121.782 151.066 124.02 155.984 125.986C160.902 127.952 165.273 131.229 169.098 135.816C173.033 140.294 175 146.464 175 154.328ZM114.672 104.034C114.672 106.765 115.492 109.058 117.131 110.915C118.88 112.771 121.339 114.41 124.508 115.829V93.058C121.448 93.6041 119.044 94.8055 117.295 96.6621C115.546 98.4096 114.672 100.867 114.672 104.034ZM135 166.942C138.279 166.396 140.847 165.085 142.705 163.01C144.672 160.935 145.656 158.369 145.656 155.311C145.656 152.471 144.727 150.177 142.869 148.43C141.12 146.573 138.497 144.99 135 143.679V166.942Z" fill="white"/>
<defs>
<linearGradient id="paint0_linear_169_3" x1="-1.85714" y1="-3.62109e-06" x2="261.857" y2="261.857" gradientUnits="userSpaceOnUse">
<stop stop-color="#FD7530"/>
<stop offset="0.375512" stop-color="#FD7530" stop-opacity="0.75"/>
<stop offset="0.763522" stop-color="#FF6F26" stop-opacity="0.5"/>
<stop offset="1" stop-color="#FF6F26" stop-opacity="0.25"/>
</linearGradient>
</defs>
</svg>
