<?xml version="1.0" standalone="no"?>
<!DOCTYPE svg PUBLIC "-//W3C//DTD SVG 20010904//EN"
 "http://www.w3.org/TR/2001/REC-SVG-20010904/DTD/svg10.dtd">
<svg version="1.0" xmlns="http://www.w3.org/2000/svg"
 width="500.000000pt" height="500.000000pt" viewBox="0 0 500.000000 500.000000"
 preserveAspectRatio="xMidYMid meet">
<metadata>
Created by potrace 1.14, written by Peter Selinger 2001-2017
</metadata>
<g transform="translate(0.000000,500.000000) scale(0.100000,-0.100000)"
fill="#000000" stroke="none">
<path d="M2231 4709 c-46 -21 -92 -39 -102 -39 -12 0 -19 -7 -19 -20 0 -11 -4
-20 -10 -20 -6 0 -6 9 1 26 12 33 2 47 -14 19 -6 -11 -23 -31 -39 -45 -15 -13
-28 -30 -28 -36 0 -7 -15 -32 -34 -57 -19 -24 -39 -54 -45 -66 -6 -11 -25 -28
-41 -36 -17 -9 -30 -23 -30 -33 0 -10 -32 -46 -70 -81 -39 -34 -77 -77 -86
-94 -9 -18 -32 -48 -51 -68 -29 -31 -35 -45 -37 -88 -3 -45 -8 -58 -43 -94
-22 -23 -45 -60 -51 -82 -6 -22 -23 -53 -36 -68 -14 -16 -34 -57 -46 -92 -11
-34 -35 -84 -52 -111 -52 -81 -80 -155 -75 -191 4 -24 -1 -41 -18 -65 -49 -68
-56 -86 -43 -108 11 -16 10 -28 -4 -67 -11 -31 -14 -51 -8 -57 15 -15 12 -31
-10 -56 -14 -17 -17 -27 -10 -41 6 -10 10 -40 10 -67 0 -52 23 -117 52 -145
20 -21 16 -114 -11 -246 -13 -64 -13 -63 -3 -57 4 2 6 -37 4 -89 -5 -107 17
-190 68 -260 16 -22 37 -52 47 -67 19 -30 33 -36 33 -14 0 15 35 27 56 19 7
-2 16 -13 19 -23 3 -10 19 -24 36 -31 35 -14 49 -3 49 39 0 30 24 28 48 -3
l20 -26 12 58 c6 32 16 72 21 88 5 17 20 114 34 216 13 102 29 197 34 211 5
14 8 28 5 31 -7 7 17 110 30 126 6 7 29 22 51 31 23 10 49 25 59 35 30 30 27
10 -6 -41 -54 -83 -58 -94 -52 -135 5 -28 11 -39 24 -39 10 0 20 6 23 14 3 8
25 17 49 21 24 4 48 10 53 14 6 4 30 7 55 7 25 -1 48 3 52 8 7 11 70 0 186
-32 53 -15 82 -18 104 -11 17 4 38 5 46 0 10 -6 22 -2 36 10 11 11 26 19 33
19 7 0 13 9 13 19 0 11 5 23 10 26 6 4 7 12 1 22 -4 9 -6 24 -4 34 6 23 -52
85 -63 68 -5 -8 -3 -9 6 -4 9 5 11 4 6 -3 -12 -20 -40 -13 -79 19 l-37 30 23
23 c31 31 67 39 83 18 10 -14 15 -15 37 -3 15 8 23 19 20 27 -3 8 0 14 6 14 6
0 9 10 7 23 -3 12 -5 24 -5 27 -1 3 -5 -1 -10 -9 -6 -9 -11 -10 -15 -2 -4 6 0
14 9 17 20 8 44 -23 37 -48 -7 -30 11 -20 43 23 17 22 41 54 55 71 24 31 24
31 3 26 -31 -8 -41 34 -13 62 11 11 20 25 20 30 0 6 7 10 15 10 11 0 12 -5 5
-26 -6 -14 -6 -23 -1 -19 5 3 12 18 16 34 7 34 29 56 46 46 38 -24 60 -184 32
-239 -9 -16 -22 -36 -30 -44 -18 -19 -11 -25 19 -17 20 5 29 19 46 73 12 37
24 92 27 122 3 30 8 74 11 98 5 37 3 42 -15 42 -13 0 -21 7 -21 18 -1 16 -1
16 -11 0 -5 -10 -15 -18 -21 -18 -6 0 -8 3 -5 7 4 3 0 17 -8 30 -9 13 -11 23
-5 23 5 0 10 12 10 28 0 21 2 24 10 12 5 -8 10 -13 11 -10 0 3 3 21 6 39 5 36
30 64 48 54 5 -4 7 -2 2 2 -9 10 21 45 40 45 20 0 37 51 21 62 -10 6 -7 13 11
28 13 11 31 20 40 20 13 0 13 2 2 9 -11 7 -7 13 17 25 17 9 43 16 57 16 15 0
36 5 48 12 12 6 51 11 86 9 35 -1 79 3 98 10 28 9 38 8 61 -7 15 -10 29 -19
32 -19 42 -7 140 -91 140 -121 0 -6 7 -17 16 -25 11 -9 15 -27 13 -59 -2 -34
2 -52 17 -67 41 -45 42 -50 39 -131 -2 -69 1 -88 21 -128 13 -26 24 -55 24
-65 0 -10 6 -22 14 -26 22 -13 44 -76 51 -150 10 -98 15 -126 25 -138 5 -6 25
-93 45 -194 19 -100 42 -192 51 -205 10 -16 12 -26 5 -31 -14 -8 -14 -45 -1
-45 6 0 15 11 21 24 6 13 21 29 34 36 l23 12 -35 35 c-36 38 -40 70 -8 65 11
-2 25 -10 31 -18 15 -18 24 -18 40 4 13 16 13 16 14 0 0 -10 -4 -18 -10 -18
-5 0 -10 -7 -10 -15 0 -8 7 -15 15 -15 8 0 15 5 15 10 0 17 17 11 23 -9 5 -19
66 -55 76 -45 3 3 -11 19 -31 36 -43 34 -48 60 -16 75 17 7 31 4 65 -14 53
-30 104 -28 118 5 10 23 29 29 40 12 7 -12 25 -13 25 -2 0 4 -18 15 -40 25
-22 9 -40 19 -40 20 0 2 33 4 74 3 41 -1 66 -4 56 -8 -22 -8 -35 -27 -25 -36
4 -4 12 0 18 8 7 8 25 21 40 28 15 6 26 16 23 21 -3 5 4 20 15 35 15 19 16 24
5 20 -9 -3 -16 -10 -16 -14 0 -20 -96 -42 -113 -26 -7 7 -38 21 -69 30 -60 19
-138 75 -105 76 21 0 23 30 2 30 -8 0 -15 4 -15 8 0 5 27 9 60 10 63 2 142 33
188 75 23 22 32 58 10 40 -7 -6 -23 -12 -34 -15 -17 -4 -20 -2 -16 14 2 10 7
16 10 13 11 -11 53 40 63 78 13 48 6 59 -11 18 -29 -70 -170 -140 -219 -109
-12 7 -21 20 -20 28 0 10 2 11 6 2 6 -16 82 37 83 58 0 13 1 13 10 0 8 -12 10
-10 10 11 0 14 6 31 12 37 10 10 10 15 0 21 -11 7 -11 9 2 14 15 6 18 25 19
123 1 54 -3 61 -102 188 -35 46 -41 59 -31 71 18 21 2 38 -31 31 l-28 -5 19
33 c23 38 58 134 70 194 6 24 12 48 15 53 13 19 -13 8 -29 -13 l-17 -23 6 28
c3 15 -1 40 -10 57 -8 16 -15 51 -15 79 0 62 -12 94 -56 147 -39 48 -43 83
-13 110 19 17 19 19 3 31 -10 7 -32 13 -48 13 -36 0 -64 14 -47 24 5 4 19 1
30 -6 16 -10 23 -10 32 -1 10 10 -3 20 -57 44 -79 37 -84 40 -66 46 20 7 14
23 -9 23 -14 0 -24 10 -32 29 -10 27 -12 28 -45 19 -21 -6 -37 -6 -41 0 -13
19 -45 30 -67 22 -16 -6 -24 -5 -28 5 -3 10 3 17 17 20 13 4 28 15 35 26 11
17 9 19 -14 19 -14 0 -23 4 -19 10 10 16 -16 11 -73 -14 -32 -14 -60 -34 -70
-51 -12 -19 -27 -29 -47 -30 -17 -2 -24 -1 -17 2 19 7 4 23 -23 23 -33 0 -40
17 -14 31 17 9 19 13 8 19 -7 5 -17 6 -21 4 -16 -10 -49 8 -46 24 2 11 -4 17
-19 18 -12 1 -30 9 -39 19 -17 17 -19 16 -41 -11 -13 -16 -28 -28 -33 -27 -6
2 -10 -2 -10 -7 0 -6 5 -10 12 -10 6 0 9 -3 5 -6 -8 -9 -67 6 -67 17 0 5 9 9
20 9 11 0 20 4 20 10 0 13 48 60 63 61 13 1 -41 20 -60 21 -7 1 -13 7 -13 15
0 7 -4 13 -10 13 -5 0 -10 -4 -10 -10 0 -5 -13 -16 -29 -24 -36 -19 -47 -45
-26 -65 15 -15 17 -14 29 2 14 18 46 24 46 8 0 -5 -15 -18 -32 -30 -27 -17
-34 -18 -41 -6 -4 8 -14 12 -22 9 -10 -4 -15 0 -15 14 0 11 -7 25 -15 32 -8 7
-15 10 -15 6 0 -3 -12 -1 -27 5 -16 6 -29 6 -32 0 -3 -5 -11 -3 -18 5 -10 10
-8 19 13 43 37 44 20 58 -24 20 -34 -30 -36 -31 -43 -11 -10 26 -29 38 -29 17
0 -14 -3 -14 -30 0 -16 9 -30 12 -30 9 0 -4 -9 1 -20 11 -12 10 -18 25 -16 32
6 15 -6 17 -20 3 -13 -13 -84 12 -96 34 -7 12 -14 14 -28 6 -13 -7 -21 -7 -25
1 -4 6 -17 8 -29 5 -31 -7 -117 18 -128 37 -5 9 -18 17 -29 17 -12 0 -23 8
-26 20 -4 15 -14 20 -39 20 -18 0 -36 5 -39 10 -9 14 -10 14 -104 -31z m129
-19 c0 -5 -2 -10 -4 -10 -3 0 -8 5 -11 10 -3 6 -1 10 4 10 6 0 11 -4 11 -10z
m1010 -365 c0 -8 -7 -15 -15 -15 -16 0 -20 12 -8 23 11 12 23 8 23 -8z m-1535
-37 c-9 -30 -51 -68 -76 -68 -33 0 -24 19 29 63 41 33 55 34 47 5z m1985 -88
c0 -5 -4 -10 -9 -10 -6 0 -13 5 -16 10 -3 6 1 10 9 10 9 0 16 -4 16 -10z
m-2290 -390 c0 -5 -9 -14 -20 -20 -11 -6 -20 -17 -20 -25 0 -8 -4 -15 -10 -15
-16 0 -12 15 11 44 21 26 39 34 39 16z m2550 -181 c0 -28 -15 -23 -16 6 -1 14
2 22 7 19 5 -3 9 -14 9 -25z m-1370 -317 c0 -5 -6 -15 -14 -21 -11 -9 -17 -8
-29 3 -8 8 -16 14 -18 13 -2 -1 5 7 16 18 16 16 23 18 33 8 6 -6 12 -16 12
-21z m43 4 c4 -10 1 -13 -8 -9 -8 3 -12 9 -9 14 7 12 11 11 17 -5z m75 -93
c-4 -52 -28 -56 -28 -4 0 30 4 41 16 41 11 0 14 -9 12 -37z m-226 -105 c-7 -7
-12 -8 -12 -2 0 6 3 14 7 17 3 4 9 5 12 2 2 -3 -1 -11 -7 -17z m-22 -78 c0 -5
-2 -10 -4 -10 -3 0 -8 5 -11 10 -3 6 -1 10 4 10 6 0 11 -4 11 -10z m1603 -79
c-5 -19 -51 -46 -61 -36 -3 3 0 5 6 5 7 0 12 5 12 11 0 12 29 38 42 39 3 0 4
-8 1 -19z m-2904 -61 c0 -24 0 -24 -14 -6 -8 11 -15 31 -15 45 0 24 1 24 15 5
8 -10 14 -30 14 -44z m2780 -354 c7 -8 25 -17 40 -21 16 -3 39 -18 52 -32 l24
-25 -35 6 c-64 13 -110 39 -110 64 0 25 12 29 29 8z m-69 -11 c0 -8 -4 -15
-10 -15 -5 0 -10 7 -10 15 0 8 5 15 10 15 6 0 10 -7 10 -15z m-15 -34 c3 -5 1
-12 -5 -16 -5 -3 -10 1 -10 9 0 18 6 21 15 7z"/>
<path d="M2430 4726 c0 -2 9 -6 20 -9 11 -3 20 -1 20 4 0 5 -9 9 -20 9 -11 0
-20 -2 -20 -4z"/>
<path d="M2480 4680 c0 -6 7 -10 15 -10 8 0 15 2 15 4 0 2 -7 6 -15 10 -8 3
-15 1 -15 -4z"/>
<path d="M3453 4365 c-10 -11 -7 -15 17 -23 27 -10 28 -9 21 11 -10 26 -22 30
-38 12z"/>
<path d="M3698 4343 c7 -3 16 -2 19 1 4 3 -2 6 -13 5 -11 0 -14 -3 -6 -6z"/>
<path d="M3730 4340 c0 -5 5 -10 10 -10 6 0 10 5 10 10 0 6 -4 10 -10 10 -5 0
-10 -4 -10 -10z"/>
<path d="M4146 3795 c-3 -8 -1 -15 4 -15 6 0 10 7 10 15 0 8 -2 15 -4 15 -2 0
-6 -7 -10 -15z"/>
<path d="M4159 3763 c-18 -4 -32 -40 -20 -47 12 -8 27 8 33 32 4 12 5 21 5 21
-1 -1 -9 -3 -18 -6z"/>
<path d="M2697 3034 c-8 -8 3 -34 14 -34 11 0 12 27 0 34 -4 3 -11 3 -14 0z"/>
<path d="M2519 2898 c-6 -12 -4 -48 2 -48 5 0 9 11 9 25 0 21 -6 33 -11 23z"/>
<path d="M3396 2892 c-4 -4 -69 -7 -144 -7 -162 0 -186 -8 -219 -75 -13 -24
-23 -51 -23 -60 1 -26 27 -51 56 -54 16 -2 33 -4 39 -5 19 -2 -23 -32 -50 -35
-15 -2 -33 -9 -39 -17 -6 -8 -27 -26 -47 -41 -48 -35 -68 -80 -63 -136 8 -82
51 -140 144 -193 67 -38 75 -39 115 -18 20 11 42 18 48 16 11 -3 37 15 37 27
0 9 -40 47 -40 39 0 -5 -6 3 -14 17 -16 31 -8 50 11 25 12 -17 13 -17 13 -2 0
13 9 17 40 17 46 0 95 21 104 45 3 9 6 32 6 50 0 31 2 34 23 26 17 -7 22 -16
20 -40 -1 -31 0 -31 33 -25 22 4 40 2 49 -6 20 -17 29 -7 21 23 -9 39 -79 86
-152 104 -53 13 -62 18 -46 24 12 4 44 4 71 0 28 -4 48 -4 45 0 -10 16 -90 31
-179 34 -49 2 -93 3 -97 4 -3 1 -6 16 -5 35 1 24 5 32 15 29 7 -3 27 4 43 16
59 44 147 68 273 75 l120 6 28 -27 c15 -15 28 -21 28 -14 0 7 4 9 10 6 6 -3 7
1 3 10 -4 12 -8 13 -13 5 -6 -9 -9 -9 -15 -1 -4 7 -1 19 6 27 6 8 10 16 8 19
-20 19 -82 53 -116 63 -36 11 -46 10 -66 -3 -22 -14 -26 -14 -49 5 -14 10 -29
16 -32 12z m-236 -422 c0 -41 -21 -57 -34 -24 -9 24 -8 31 10 48 22 23 24 21
24 -24z"/>
<path d="M3010 2855 c-7 -9 -11 -18 -8 -20 3 -3 11 1 18 10 7 9 11 18 8 20 -3
3 -11 -1 -18 -10z"/>
<path d="M2371 2616 c5 -16 6 -32 4 -36 -6 -10 -57 -19 -130 -21 -147 -6 -220
-58 -238 -171 -7 -47 5 -55 49 -32 28 15 38 16 54 6 24 -15 50 -16 50 -2 0 6
-7 13 -15 16 -22 9 -18 41 5 54 32 17 41 3 36 -56 -4 -42 -2 -54 8 -51 23 9
108 -13 122 -30 11 -15 11 -20 -3 -30 -9 -7 -27 -13 -41 -13 -15 0 -21 -4 -16
-12 5 -7 2 -9 -7 -6 -8 3 -25 0 -38 -6 -20 -11 -20 -14 -7 -25 8 -7 21 -14 28
-15 7 -1 24 -6 36 -10 29 -10 160 17 217 44 22 11 51 22 65 25 70 17 127 185
87 260 -20 40 -93 99 -139 114 -21 7 -38 16 -38 20 0 5 -22 8 -49 7 l-48 -1 8
-29z m-161 -99 c0 -2 -19 -14 -42 -26 -24 -12 -63 -40 -88 -62 -45 -40 -57
-38 -46 6 8 31 99 85 144 85 17 0 32 -2 32 -3z m204 -73 c22 -8 20 -37 -4 -59
-20 -18 -20 -17 -20 23 0 45 0 45 24 36z"/>
<path d="M4305 2590 c-16 -7 -17 -9 -3 -9 9 -1 20 4 23 9 7 11 7 11 -20 0z"/>
<path d="M4250 2570 c0 -5 7 -7 15 -4 8 4 15 8 15 10 0 2 -7 4 -15 4 -8 0 -15
-4 -15 -10z"/>
<path d="M3255 2359 c-11 -4 -15 -8 -9 -8 7 -1 14 -10 17 -21 7 -29 28 -25 24
5 -4 31 -8 34 -32 24z"/>
<path d="M3904 2144 c11 -27 16 -57 20 -111 3 -50 1 -54 -40 -98 -24 -25 -44
-48 -44 -50 0 -3 9 -5 19 -5 19 0 121 108 125 133 1 7 11 26 23 43 15 21 19
34 12 46 -6 11 -6 19 1 23 26 16 7 25 -39 19 -31 -4 -51 -2 -55 5 -11 17 -29
13 -22 -5z"/>
<path d="M2471 1891 c-24 -23 -39 -41 -35 -41 3 0 -4 -8 -17 -19 -13 -10 -30
-39 -38 -65 -7 -25 -17 -46 -21 -46 -6 0 -19 -27 -24 -52 0 -4 -8 -13 -17 -20
-18 -14 -35 -53 -19 -43 6 3 10 -3 10 -14 0 -14 -5 -19 -15 -15 -9 4 -16 -3
-21 -20 -3 -14 -10 -26 -15 -26 -5 0 -9 -6 -9 -14 0 -7 -14 -41 -32 -75 -29
-57 -30 -62 -15 -79 10 -10 17 -23 17 -29 0 -6 7 -13 15 -17 8 -3 15 -1 15 4
0 16 52 12 71 -5 15 -14 18 -14 34 1 23 24 70 22 104 -4 16 -12 38 -19 50 -17
11 2 37 -1 58 -7 21 -7 42 -11 47 -9 4 1 13 -2 20 -7 6 -5 21 -12 34 -15 17
-4 22 -1 20 10 -2 12 6 17 30 19 17 1 32 -2 32 -7 0 -6 5 -7 11 -3 6 3 15 0
20 -7 8 -12 11 -12 20 1 9 12 10 10 6 -8 -5 -23 -4 -24 31 -17 20 4 40 12 44
18 4 7 11 12 15 13 4 0 15 4 23 7 8 4 24 8 35 10 11 2 33 9 48 15 16 7 34 12
41 12 6 0 16 4 21 9 6 4 25 13 44 20 27 9 40 8 66 -4 36 -18 62 -11 109 29 22
18 28 30 24 50 -3 14 -1 23 3 20 5 -3 9 1 9 9 0 19 -27 30 -34 14 -2 -7 -5 -5
-5 4 -2 29 -50 68 -77 63 -27 -5 -117 44 -108 58 3 4 0 8 -7 8 -6 0 -9 8 -6
20 3 11 1 18 -4 14 -5 -3 -9 2 -9 10 0 27 -38 56 -72 56 -17 0 -56 -12 -87
-27 -41 -20 -68 -26 -103 -24 -52 3 -72 -14 -43 -36 11 -7 14 -13 8 -13 -11 0
-29 -57 -20 -66 2 -2 10 3 18 13 12 14 12 16 0 8 -10 -6 -12 -4 -6 5 6 10 10
10 20 -3 16 -23 44 -2 47 36 2 25 18 40 18 16 0 -6 9 -9 20 -6 14 4 20 0 20
-13 0 -9 9 -29 21 -43 11 -15 22 -35 24 -46 5 -26 -46 -81 -73 -81 -12 0 -24
-4 -27 -10 -11 -17 -87 -11 -133 11 l-44 22 6 53 c3 29 2 55 -3 58 -5 3 -7 15
-4 26 4 15 9 18 18 10 10 -8 15 -6 19 8 4 11 16 22 28 26 25 6 21 15 -11 21
-14 3 -20 0 -16 -8 4 -7 -4 0 -17 15 -27 32 -100 60 -133 52 -35 -9 -65 12
-65 45 0 16 11 59 25 96 33 86 22 100 -34 46z m3 -207 c3 -8 2 -12 -4 -9 -6 3
-10 -1 -10 -9 0 -9 -7 -16 -15 -16 -18 0 -20 36 -2 43 20 9 25 8 31 -9z m-112
-86 c7 7 16 12 20 12 14 0 9 -27 -8 -41 -20 -16 -43 -3 -56 31 -9 23 -8 24 12
5 16 -14 23 -16 32 -7z m558 -288 c0 -5 -5 -10 -11 -10 -5 0 -7 5 -4 10 3 6 8
10 11 10 2 0 4 -4 4 -10z"/>
<path d="M3050 1916 c0 -2 9 -33 20 -70 23 -72 51 -102 82 -85 23 12 23 20 -1
46 -14 15 -17 23 -8 32 8 8 7 11 -5 11 -8 0 -29 16 -45 35 -27 31 -43 43 -43
31z"/>
<path d="M2791 1471 c-19 -15 -21 -19 -8 -24 10 -4 21 3 31 19 19 28 10 31
-23 5z"/>
<path d="M1783 1466 c-9 -11 -9 -21 0 -45 13 -35 32 -43 21 -8 -4 12 -7 32 -6
45 2 25 1 26 -15 8z"/>
<path d="M1810 1361 c0 -6 5 -13 10 -16 6 -3 10 1 10 9 0 9 -4 16 -10 16 -5 0
-10 -4 -10 -9z"/>
<path d="M1840 1303 c0 -17 44 -76 60 -80 8 -2 5 4 -7 13 -13 9 -23 24 -23 34
0 10 -7 23 -15 30 -8 7 -15 8 -15 3z"/>
<path d="M1890 1190 c0 -6 7 -22 17 -36 12 -19 18 -22 25 -12 6 10 10 7 14 -9
6 -23 19 -30 28 -15 3 5 -10 25 -28 45 -32 36 -56 47 -56 27z"/>
<path d="M2657 1169 c-9 -5 -21 -7 -27 -4 -5 3 -17 -7 -27 -22 -10 -15 -25
-33 -33 -40 -8 -7 -10 -13 -5 -13 6 0 3 -5 -5 -10 -13 -8 -13 -10 2 -10 9 0
22 8 27 18 10 16 10 16 11 -1 0 -11 -8 -32 -17 -48 -14 -23 -15 -31 -5 -41 10
-10 17 -10 32 0 16 10 20 10 21 0 0 -7 2 -34 4 -60 2 -26 0 -50 -5 -53 -6 -4
-10 2 -11 12 -1 13 -3 11 -9 -7 -7 -23 -8 -22 -9 10 -1 26 -4 31 -13 22 -18
-18 -45 -15 -53 6 -6 15 -8 14 -16 -7 l-9 -24 -25 27 c-18 20 -31 25 -49 20
-13 -3 -27 -1 -31 5 -3 6 -11 8 -17 5 -13 -8 -7 48 7 59 6 5 3 7 -6 4 -29 -9
-59 21 -59 58 0 51 -29 95 -62 95 -21 0 -28 -5 -28 -19 0 -10 -7 -21 -15 -25
-8 -3 -15 -9 -15 -15 0 -13 36 -20 49 -10 8 6 8 5 1 -3 -6 -7 -14 -13 -18 -13
-18 0 -51 -34 -57 -58 -6 -22 -11 -26 -29 -21 -14 3 -28 -1 -36 -10 -11 -14
-20 -9 -72 44 -33 33 -61 60 -61 60 -1 0 -3 -11 -3 -25 -3 -36 -20 -53 -63
-61 -37 -7 -97 -35 -142 -65 -17 -12 -43 -18 -76 -17 -41 1 -61 -5 -109 -35
-33 -20 -73 -49 -89 -64 -43 -41 -107 -83 -127 -83 -9 0 -25 -12 -35 -26 -40
-58 -61 -74 -100 -74 -48 0 -187 -17 -289 -35 -45 -8 -95 -15 -112 -15 -69 0
-131 -45 -163 -118 -14 -32 -28 -47 -56 -59 -64 -27 -135 -43 -193 -43 -81 0
-124 -16 -186 -66 -31 -25 -76 -58 -102 -73 -25 -14 -53 -40 -62 -56 -9 -17
-30 -39 -48 -50 -29 -19 -31 -24 -32 -77 l0 -58 1187 0 1186 0 -39 29 c-71 52
-122 115 -165 201 -23 47 -61 120 -85 162 -57 104 -120 260 -133 332 -21 113
-10 222 26 258 18 18 19 18 20 -2 3 -33 62 -110 85 -110 16 0 19 -4 14 -25 -5
-19 1 -31 29 -56 19 -18 35 -37 35 -44 0 -16 75 -87 83 -79 4 4 7 -1 7 -11 0
-14 3 -16 12 -7 8 8 18 6 40 -9 15 -11 28 -27 28 -34 0 -8 9 -16 19 -20 10 -3
21 -15 24 -26 4 -15 11 -19 24 -15 20 6 108 -18 129 -35 8 -6 14 -23 14 -36 0
-34 24 -24 30 12 6 33 26 35 22 2 -1 -14 1 -18 6 -9 7 9 19 9 60 -3 60 -18
150 -15 163 6 5 8 20 13 37 11 16 -2 53 8 83 21 79 35 92 40 109 42 23 3 129
55 175 86 49 33 66 51 69 75 3 18 64 84 78 84 4 0 8 7 8 15 0 8 9 19 19 24 10
6 24 25 30 42 6 18 27 56 47 86 39 59 38 76 -2 52 -20 -12 -36 -13 -77 -6 -29
5 -60 13 -70 18 -19 10 -57 -4 -57 -21 0 -6 -10 -10 -21 -10 -12 0 -34 -13
-49 -28 -14 -16 -32 -26 -38 -24 -7 2 -15 -10 -18 -28 -5 -22 -9 -28 -15 -18
-7 10 -9 9 -9 -4 0 -27 -19 -22 -26 7 -9 35 -32 52 -40 31 -4 -10 -12 -15 -20
-12 -8 3 -14 -5 -16 -22 -2 -15 -8 -26 -15 -25 -7 2 -10 -4 -7 -12 4 -8 1 -15
-5 -15 -6 0 -11 12 -11 26 0 14 -4 23 -10 19 -6 -3 -13 1 -16 9 -10 25 -24 19
-24 -10 0 -19 -4 -25 -15 -20 -11 4 -17 -3 -22 -24 -5 -28 -23 -43 -23 -19 0
6 -10 19 -22 29 l-23 18 23 42 c28 53 28 59 -2 31 -19 -18 -24 -19 -29 -7 -3
8 1 20 9 27 10 8 11 15 4 24 -6 8 -3 23 10 48 23 43 25 63 8 99 -10 22 -21 27
-56 30 -35 3 -47 -1 -58 -17 -14 -19 -14 -19 -14 3 0 24 -30 30 -63 11z m-347
-99 c0 -5 -4 -10 -10 -10 -5 0 -10 5 -10 10 0 6 5 10 10 10 6 0 10 -4 10 -10z
m390 -106 c0 -8 -4 -13 -9 -9 -5 3 -11 -3 -13 -12 -2 -10 -6 -13 -10 -8 -8 15
10 57 22 50 5 -3 10 -13 10 -21z m80 -18 c0 -3 -4 -8 -10 -11 -5 -3 -10 -1
-10 4 0 6 5 11 10 11 6 0 10 -2 10 -4z m-20 -36 c0 -5 -4 -10 -10 -10 -5 0
-10 5 -10 10 0 6 5 10 10 10 6 0 10 -4 10 -10z"/>
<path d="M4984 1155 c3 -10 -1 -15 -12 -16 -12 0 -13 -2 -3 -6 11 -5 11 -7 0
-14 -10 -6 -11 -9 -1 -9 6 0 12 -4 12 -10 0 -5 -7 -10 -17 -10 -9 0 -14 -3
-10 -6 3 -3 1 -19 -5 -35 -7 -22 -7 -33 2 -44 11 -13 10 -14 -6 -9 -18 7 -19
7 -1 -14 19 -20 18 -21 -5 -15 -19 5 -21 3 -10 -8 17 -19 15 -28 -10 -39 -19
-7 -19 -9 -5 -9 10 -1 16 -5 13 -10 -3 -5 -16 -7 -29 -5 -12 2 -15 1 -7 -2 16
-8 30 -24 30 -37 0 -5 -5 -5 -10 -2 -13 8 -36 -15 -44 -45 -5 -17 -4 -21 2
-11 6 7 12 9 15 4 4 -6 -3 -20 -14 -31 -19 -21 -17 -27 6 -22 6 1 -3 -12 -18
-28 -26 -27 -35 -30 -115 -35 -48 -3 -108 -11 -133 -18 -45 -12 -48 -11 -97
19 -66 40 -141 62 -216 62 -54 0 -69 5 -136 45 -59 35 -85 45 -121 45 -42 0
-69 9 -253 88 -22 9 -57 31 -79 49 -22 19 -68 50 -104 70 -53 29 -67 33 -74
22 -13 -20 -12 -24 18 -82 25 -47 27 -62 27 -162 0 -98 -4 -121 -32 -204 -59
-171 -226 -460 -323 -558 l-62 -63 921 0 922 0 0 319 c0 246 -3 320 -12 324
-10 4 -10 6 0 6 16 1 18 521 1 521 -6 0 -9 -7 -5 -15z"/>
<path d="M2868 1154 c-4 -5 2 -23 13 -40 10 -16 19 -24 19 -18 0 5 -4 14 -9
20 -5 5 -11 18 -13 29 -2 11 -6 15 -10 9z"/>
<path d="M4900 956 c0 -2 7 -9 15 -16 9 -7 15 -8 15 -2 0 5 -7 12 -15 16 -8 3
-15 4 -15 2z"/>
<path d="M4830 740 c0 -5 5 -10 11 -10 5 0 7 5 4 10 -3 6 -8 10 -11 10 -2 0
-4 -4 -4 -10z"/>
</g>
</svg>
